<?xml version="1.0" encoding="UTF-8"?><svg id="a" xmlns="http://www.w3.org/2000/svg" viewBox="0 0 480 480"><defs><style>.b{fill:#12293d;}</style></defs><g><path class="b" d="M118.24,133.66c3.86-2.8,7.3-5.41,10.86-7.85,12.59-8.61,26.01-15.66,40.29-20.98,13.41-4.99,27.18-8.66,41.51-9.78,6.64-.52,13.29-.86,19.95-1.09,1.66-.06,3.4,.52,5.03,1.06,5.36,1.77,10.58,1.83,15.09-1.91,4.33-3.59,6.16-8.33,5.02-14.02-1.01-5-5.65-9.73-10.43-10.59-6.44-1.15-12.06,1.2-15.08,6.5-.85,1.49-1.45,3.17-1.84,4.84-.31,1.33-.82,1.85-2.19,1.89-14.97,.4-29.75,2.5-44.16,6.47-8.97,2.48-17.75,5.8-26.42,9.22-13.23,5.22-25.46,12.36-37.08,20.54-3.69,2.6-7.32,5.28-10.79,8.15-1.49,1.23-2.68,1.3-4.29,.55-7.8-3.68-15.62-7.3-23.43-10.94-.76-.35-1.54-.68-2.53-1.11-.08,.94-.18,1.55-.18,2.16-.02,14.61,0,29.21-.06,43.82,0,1.99,.44,3.14,2.49,4.17,9.74,4.92,10.39,19.23,1.2,25.26-1.78,1.17-1.76,1.92-1.13,3.88,2.43,7.52,4.95,15.07,6.5,22.79,2.75,13.75,4.85,27.63,7.12,41.47,.56,3.41,.69,6.9,1.04,10.54H50.49c3.84-26.04,6.07-52.19,14.94-76.38-2.32-3.03-4.93-5.55-6.45-8.6-3.8-7.63-.11-16.42,7.84-19.53,1.29-.5,1.86-1.18,1.86-2.61-.02-16.51,.04-33.02-.05-49.53,0-.88-.98-2.14-1.83-2.56-5.73-2.87-11.55-5.55-17.34-8.31-.84-.4-1.64-.89-2.82-1.54,3.99-1.88,7.62-3.59,11.25-5.3,17.12-8.05,34.22-16.13,51.36-24.14,15.05-7.04,30.13-13.99,45.19-21,12.91-6,25.81-12.02,38.72-18.02,15.99-7.43,31.98-14.87,48.01-22.23,.86-.39,2.22-.38,3.09,.02,14.71,6.79,29.38,13.65,44.05,20.52,15.4,7.21,30.77,14.45,46.17,21.65,12.48,5.83,24.98,11.6,37.47,17.41,11.04,5.14,22.07,10.31,33.12,15.43,9.4,4.35,18.83,8.65,28.24,12.98,1.71,.79,3.38,1.63,5.65,2.73-4.65,2.2-8.78,4.13-12.9,6.09-11.21,5.35-22.41,10.73-33.64,16.05-12.21,5.78-24.47,11.48-36.68,17.26-8.94,4.23-17.83,8.57-26.76,12.82-15.01,7.13-30.04,14.21-45.05,21.33-13.23,6.28-26.42,12.61-39.68,18.82-.97,.45-2.52,.49-3.48,.04-15.42-7.2-30.79-14.5-46.16-21.81-13.21-6.29-26.4-12.63-39.6-18.94-11.71-5.6-23.42-11.18-35.13-16.78-.35-.17-.69-.38-1.65-.91Z"/><path class="b" d="M122.51,206.11c3.26,.77,6.13,1.3,8.92,2.12,23.93,7.08,46.88,16.39,68.3,29.34,14.81,8.96,28.53,19.32,41.13,31.16,1.46,1.37,2.36,1.54,3.85,.12,11.26-10.74,23.51-20.21,36.67-28.52,11.6-7.32,23.6-13.91,36.31-19.04,10.19-4.11,20.55-7.8,30.93-11.43,4.5-1.57,9.22-2.52,14.55-3.94-.94,4.01-1.55,7.33-2.49,10.56-6.56,22.5-20.51,39.51-39.49,52.7-12.69,8.82-26.73,14.59-41.62,18.62-17.72,4.8-35.72,5.77-53.81,3.79-25.75-2.82-49.19-11.85-69.42-28.32-14.43-11.75-24.96-26.35-30.76-44.17-.59-1.81-1.12-3.64-1.55-5.48-.54-2.3-.95-4.63-1.53-7.51Z"/><path class="b" d="M364.08,148.81c0,12.35-.01,24.33,.02,36.31,0,1.26-.46,1.74-1.72,2.01-13.18,2.83-26.05,6.7-38.7,11.35-14.73,5.42-28.87,12.11-42.49,19.93-13,7.46-25.15,16.17-36.76,25.63-1.46,1.19-2.28,1.04-3.6-.05-11.15-9.15-22.83-17.55-35.35-24.75-11.54-6.64-23.34-12.78-35.82-17.4-10.83-4.01-21.83-7.54-32.82-11.1-4.43-1.44-9.04-2.33-13.53-3.61-.67-.19-1.61-1.12-1.62-1.72-.1-11.82-.08-23.64-.07-35.47,0-.29,.16-.57,.36-1.23,3.06,1.39,6,2.67,8.9,4.05,11.43,5.42,22.86,10.84,34.28,16.3,14.2,6.78,28.38,13.6,42.58,20.39,11.13,5.32,22.25,10.65,33.42,15.9,.72,.34,1.87,.33,2.59,0,9.33-4.32,18.63-8.73,27.93-13.12,11.14-5.27,22.29-10.53,33.42-15.82,10.01-4.76,19.98-9.58,29.99-14.32,8.92-4.22,17.88-8.38,26.82-12.55,.62-.29,1.3-.44,2.18-.73Z"/></g><g><path class="b" d="M289.49,381.13c0-12.7,.04-25.39-.04-38.09-.01-1.87,.48-2.51,2.39-2.5,19.36,.05,38.73,.05,58.09-.01,1.87,0,2.43,.5,2.37,2.43-.14,4.68-.05,9.36,.08,14.04,.05,1.77-.53,2.33-2.31,2.32-12.22-.07-24.44-.03-36.66-.04q-3.27,0-3.25,3.15c.01,2.22,.13,4.45,0,6.66-.11,1.86,.5,2.44,2.41,2.43,10.48-.08,20.95,.03,31.43-.06,2.08-.02,2.78,.53,2.71,2.65-.16,4.44-.15,8.89-.04,13.33,.05,2-.45,2.74-2.64,2.71-10.32-.14-20.63-.03-30.95-.15-2.17-.03-3.02,.56-2.87,2.81,.17,2.53,.17,5.08,0,7.61-.15,2.32,.51,3.14,3.02,3.11,12.14-.15,24.29,0,36.43-.14,2.46-.03,3.13,.71,3.05,3.1-.16,4.52-.06,9.05,.08,13.57,.05,1.7-.49,2.18-2.16,2.17-19.44-.05-38.89-.07-58.33-.01-2.13,0-2.68-.72-2.67-2.76,.08-12.78,.04-25.55,.04-38.33h-.16Z"/><path class="b" d="M149.64,372.04c2.44-2.88,4.89-5.75,7.31-8.65,5.83-6.98,11.66-13.96,17.43-20.99,.99-1.21,2-1.81,3.6-1.79,7.3,.08,14.6,.04,21.9,.06,.29,0,.59,.11,1.33,.27-2,2.38-3.76,4.57-5.61,6.68-7.55,8.64-15.11,17.27-22.73,25.85-1.06,1.19-.76,1.94,.01,3.06,9.9,14.4,19.75,28.84,29.61,43.27,.39,.57,.73,1.16,1.26,2.02-.88,.16-1.46,.34-2.03,.35-6.9,.02-13.81-.02-20.71,.04-1.6,.01-2.64-.51-3.52-1.87-6.21-9.63-12.49-19.21-18.76-28.81-.25-.39-.57-.73-1.1-1.42-2.27,2.58-4.36,5.1-6.62,7.47-1.47,1.54-2.02,3.18-1.96,5.32,.16,5.55,.03,11.11,.14,16.66,.03,1.77-.42,2.61-2.36,2.59-5.55-.07-11.11-.04-16.66,.04-1.56,.02-2.04-.52-2.04-2.07,.06-25.71,.1-51.42,.07-77.14,0-1.97,.77-2.41,2.54-2.39,5.32,.07,10.64,.08,15.95-.03,1.92-.04,2.43,.65,2.42,2.49-.08,8.73-.03,17.46-.03,26.19,0,.86,0,1.71,0,2.57l.6,.24Z"/><path class="b" d="M114.76,350.31c-4.24,4.92-8.2,9.52-12.22,14.19-2.38-1.51-4.53-3.15-6.92-4.33-5.88-2.9-11.98-4.58-18.56-2.31-2.98,1.03-4.69,2.66-4.81,4.9-.12,2.19,1.55,4.62,4.38,5.64,3.26,1.18,6.61,2.16,9.99,2.97,7,1.68,14.1,3.09,20.17,7.28,7.92,5.47,10.42,13.26,9.06,22.45-1.57,10.56-8.22,17.01-17.92,20.11-17.52,5.59-33.58,2.48-47.87-9.28-1.38-1.14-1.62-1.88-.26-3.36,3.84-4.18,7.46-8.56,11.3-13.02,1.67,1.32,3.16,2.55,4.71,3.72,7.2,5.44,15.27,7.06,24.05,5.32,3.04-.6,5.33-2.83,5.53-5.15,.27-3.03-1.39-5.77-4.76-6.82-4.07-1.27-8.26-2.16-12.42-3.11-5.82-1.34-11.51-3.03-16.51-6.39-7.88-5.28-10.74-13.82-9.35-23.07,1.76-11.69,10.05-17.44,20.69-20.14,9.05-2.29,17.93-1.52,26.66,1.5,5.51,1.9,10.43,4.84,15.06,8.92Z"/><path class="b" d="M423.31,366.89c-3.4-2.26-6.36-4.93-9.83-6.41-10.72-4.59-25.12-1.91-30.5,11.01-3.58,8.6-2.99,17.16,3.15,24.62,6.04,7.34,14.03,9.23,23.13,7.52,5.06-.95,9.27-3.52,13.2-6.68,.54-.44,1.08-.89,1.79-1.47,4.38,4.84,8.65,9.58,13.34,14.77-2.92,2.13-5.62,4.42-8.62,6.23-14.48,8.72-29.66,9.77-45.02,2.87-13.96-6.27-21.79-17.45-23.48-32.66-1.32-11.86,.73-23.05,8.78-32.3,11.26-12.95,25.87-17.01,42.49-14.91,9.01,1.14,16.7,5.15,23.38,11.24,1.42,1.3,1.57,2.13,.13,3.6-3.84,3.89-7.48,7.97-11.21,11.96-.31,.33-.7,.6-.71,.61Z"/><path class="b" d="M243.42,340.56c10.79,0,21.58,.08,32.37-.06,2.48-.03,3.11,.7,2.99,3.08-.21,4.2-.22,8.41-.06,12.61,.09,2.36-.55,3.2-3.03,3.13-6.26-.17-12.54,.04-18.8-.1-2.27-.05-2.95,.58-2.94,2.9,.11,18.56,.09,37.13,.11,55.69,0,.48-.05,.96,0,1.43,.19,2.23-.72,3.04-3.04,2.97-5.23-.16-10.47-.09-15.71,0-1.7,.03-2.14-.6-2.13-2.23,.08-19.36,.05-38.71,.16-58.07,.01-2.14-.64-2.69-2.69-2.66-6.66,.11-13.33-.01-19.99,.08-1.87,.03-2.52-.56-2.48-2.45,.08-4.6,.05-9.2-.09-13.8-.06-1.92,.68-2.42,2.5-2.41,10.95,.06,21.9,.03,32.84,.03v-.14Z"/><path class="b" d="M143.48,452.23c-1.62,4.19-3.26,8.37-4.84,12.58-.65,1.73-1.39,3.29-3.61,2.64-.81-.24-1.83-.84-2.13-1.55-1.97-4.57-3.76-9.22-6.12-13.84-.04,.79-.11,1.57-.11,2.36,0,3.81-.02,7.62,.01,11.43,0,1.19-.42,1.81-1.69,1.63-1.14-.16-2.9,.59-2.92-1.44-.08-7.92-.03-15.84-.03-23.68,4.41-1.16,5.17-.86,6.74,2.85,2.15,5.09,4.24,10.2,6.68,16.09,1.3-3.11,2.35-5.57,3.38-8.05,1.4-3.36,2.82-6.71,4.19-10.08,.93-2.28,2.86-1.07,4.32-1.13,.42-.02,1.29,1.41,1.3,2.19,.16,6.9,.18,13.81,.23,20.71,.01,1.43-.06,2.63-2.13,2.6-1.9-.03-2.54-.76-2.52-2.54,.04-4.19,.01-8.37,.01-12.56-.26-.07-.52-.14-.78-.21Z"/><path class="b" d="M175.43,467.29c-2.96,.85-4.81,.03-6.4-2.55-2.83-4.63-6.07-9.01-9.14-13.5l-.68,.13c0,1.7,0,3.39,0,5.09,0,3.02-.04,6.03,0,9.05,.02,1.6-.78,2-2.23,1.99-1.39-.01-2.24-.23-2.23-1.93,.01-7.3-.09-14.6-.08-21.91,0-.55,.65-1.61,.88-1.58,1.46,.2,3.5,.17,4.23,1.09,2.78,3.53,5.14,7.4,7.66,11.14,.92,1.36,1.85,2.7,2.78,4.04l.75-.1v-16.17h4.46v25.2Z"/><path class="b" d="M432.68,458.46v-16.5c1.31,0,2.23-.2,2.98,.06,.61,.22,1.46,.99,1.47,1.53,.08,7.37,.06,14.75-.03,22.12,0,.59-.65,1.6-1.12,1.68-1.54,.25-3.14,.38-4.22-1.28-2.03-3.11-4.16-6.14-6.24-9.22-1.35-2-2.68-4.02-4.02-6.03l-.61,.14c-.04,.72-.1,1.44-.1,2.15,.02,4.04,.01,8.09,.1,12.13,.04,1.95-.92,2.31-2.66,2.33-1.91,.03-2-.99-1.99-2.4,.04-6.82,0-13.64,.09-20.46,.01-.9,.39-2.51,.8-2.58,1.53-.25,3.29-.84,4.49,1.01,2.32,3.58,4.73,7.11,7.11,10.65,1.08,1.6,2.19,3.18,3.29,4.77,.23-.04,.45-.09,.68-.13Z"/><path class="b" d="M399.97,467.74c-6.12,.48-10.51-4.78-11.02-9.55-.55-5.13-.39-9.93,3.53-13.91,4.14-4.21,15.69-4.14,18.35,4.62,1.04,3.42,1.48,6.76,.52,10.25-1.61,5.88-5.22,8.64-11.38,8.59Zm7.42-12.97c-.45-1.72-.73-3.63-1.45-5.35-1.86-4.41-7.72-5.11-10.7-1.38-2.5,3.12-2.45,10.42,.09,13.47,2.93,3.51,9.18,2.56,10.8-1.7,.58-1.54,.82-3.2,1.26-5.04Z"/><path class="b" d="M294.94,454.03c-.35,6.02-1.41,10.91-6.82,12.9-6.49,2.38-14.18,.4-15.68-8.05-.93-5.19-1.02-10.32,3.09-14.44,5.39-5.39,15.78-2.99,18.17,4.22,.66,2,.97,4.12,1.25,5.37Zm-4.38,1.35c-.57-2.27-.85-4.07-1.47-5.75-.9-2.45-2.88-3.78-5.43-3.92-2.34-.13-4.27,.83-5.59,2.92-1.83,2.89-1.82,9.44,.08,12.28,2.39,3.56,7.67,3.93,10.04,.44,1.23-1.81,1.67-4.14,2.37-5.96Z"/><path class="b" d="M268.48,449.32c-2.52,.28-4.37,.85-5.76-1.78-1.27-2.41-5.84-2.57-7.91-.72-1.42,1.27-1.23,3.59,.73,4.57,2.39,1.19,5.01,1.89,7.52,2.85,2.16,.83,4.28,1.76,5.12,4.19,1.35,3.9-.34,7.7-4.46,8.83-4.01,1.1-8.2,1.18-11.9-1.31-2.01-1.35-3.04-3.32-3.01-5.9,2.26-.35,4.13-.63,5.5,1.87,1.38,2.52,6.35,2.9,8.53,1,1.44-1.26,1.37-3.55-.38-4.36-2.42-1.12-5.01-1.9-7.55-2.75-4.08-1.37-5.92-3.94-5.49-7.74,.38-3.4,3.36-6,7.3-6.24,3.96-.25,7.9-.18,10.36,3.68,.67,1.06,.9,2.4,1.4,3.8Z"/><path class="b" d="M47.81,467.09c1.44-3.92,2.84-7.83,4.31-11.72,1.49-3.91,2.97-7.82,4.64-11.65,.34-.79,1.47-1.62,2.32-1.71,1.32-.14,3.05-.78,3.83,1.27,2.9,7.59,5.86,15.17,8.78,22.75,.14,.35,.14,.76,.2,1.13-3.72,.99-4.41,.83-5.68-2.55-.94-2.52-2.32-3.47-4.94-2.99-1.31,.24-2.71,.25-4.03,.08-2.2-.29-3.14,.87-3.74,2.71-1.15,3.51-1.65,3.74-5.69,2.68Zm16.16-9.33c-1.34-3.49-2.54-6.62-3.74-9.74-.21,.04-.43,.07-.64,.11-1.12,3.13-2.24,6.27-3.43,9.63h7.81Z"/><path class="b" d="M244.74,449.37c-2.16,.47-3.84,.68-5.14-1.78-1.33-2.52-6.38-2.89-8.18-.68-.61,.75-.59,2.62-.06,3.52,.54,.93,2,1.42,3.15,1.86,1.99,.76,4.11,1.2,6.09,2,3.33,1.34,4.92,3.66,4.8,6.6-.13,2.94-2.17,5.76-5.43,6.45-3.63,.76-7.39,1.08-10.86-1-2.33-1.4-3.39-3.41-3.31-6.2,2.06-.46,3.7-.76,5.02,1.6,1.48,2.65,6.1,3.16,8.5,1.32,1.97-1.5,1.95-3.72-.31-4.74-2.43-1.1-5.07-1.72-7.6-2.61-4.92-1.73-6.87-6.66-4.22-10.59,2.07-3.08,6.88-4.35,11.71-3.12,2.78,.7,6.27,3.79,5.86,7.37Z"/><path class="b" d="M223.32,467.18c-4.57,.72-4.81,.7-6.07-2.99-.62-1.82-1.52-2.51-3.43-2.34-1.89,.17-3.81,.17-5.7-.02-1.88-.19-2.72,.66-3.28,2.29-1.31,3.85-1.35,3.84-5.84,3.11,1.14-3.06,2.21-6.07,3.38-9.04,1.88-4.78,3.9-9.51,5.69-14.33,.55-1.47,1.3-2,2.77-1.91,1.38,.09,2.73-.29,3.44,1.64,2.3,6.31,4.8,12.55,7.21,18.83,.58,1.51,1.15,3.03,1.81,4.77Zm-8.28-9.27c-1.25-3.48-2.37-6.63-3.5-9.77-.25,0-.5,0-.75,0-1.12,3.16-2.24,6.31-3.47,9.77h7.72Z"/><path class="b" d="M356.42,467.19c-4.32,.82-4.6,.73-5.88-2.85-.64-1.79-1.56-2.86-3.62-2.53-.77,.12-1.6,.13-2.37,0-3.8-.6-6.48,.22-7.45,4.57-.18,.79-2.74,1.04-4.21,1.55-.15-.24-.3-.49-.45-.73,1.19-3.23,2.35-6.48,3.58-9.7,1.74-4.58,3.6-9.11,5.27-13.71,.47-1.3,.98-1.99,2.48-1.89,1.58,.11,3.08-.18,3.83,1.86,2.44,6.67,5.03,13.29,7.55,19.93,.43,1.14,.83,2.3,1.26,3.49Zm-8.22-9.31c-1.26-3.47-2.37-6.53-3.49-9.58l-.81,.06c-1.03,3.06-2.06,6.12-3.21,9.52h7.51Z"/><path class="b" d="M111.98,441.94c1.26,0,2.24-.17,3.12,.06,.56,.15,1.38,.9,1.38,1.38,.03,5.54,.14,11.1-.22,16.62-.29,4.39-3.84,7.5-8.23,7.66-2.11,.07-4.37,.14-6.33-.49-3.53-1.14-5.64-3.92-5.8-7.64-.23-5.3-.05-10.61-.1-15.92-.02-2.08,1.42-1.59,2.63-1.71,1.53-.15,1.9,.57,1.88,1.95-.07,4.52-.07,9.03-.1,13.55-.02,3.91,2.2,6.42,5.7,6.47,3.73,.05,6.03-2.34,6.05-6.38,.03-5.06,0-10.12,0-15.55Z"/><path class="b" d="M319.22,459.17c-.23,3.74-2.03,6.25-5.21,7.7-3.89,1.77-10.69,1.44-13.68-3.15-2.82-4.33-3.1-13.42-.22-17.72,2.77-4.13,6.72-5.22,12.68-3.84,3.8,.88,6.21,4.53,6.19,8.64-2.04,.05-4.17,1.1-5.06-2.27-.53-1.99-2.76-3.04-5.01-2.88-2.26,.15-4.06,1.17-5.05,3.37-1.76,3.94-1.46,7.88,.13,11.75,.88,2.16,2.85,2.92,5.02,2.96,2.06,.04,3.9-.57,5.01-2.56,1.5-2.7,1.53-2.69,5.21-1.98Z"/><path class="b" d="M362.94,456.64c0-2.93-.03-5.87,.01-8.8,.02-1.41-.58-2.03-1.99-1.98-1.03,.04-2.06-.1-3.09-.05-1.64,.08-1.99-.86-2.01-2.24-.02-1.46,.82-1.64,2-1.64,5.16,.03,10.31,.06,15.47-.02,1.68-.03,2.24,.66,2.26,2.24,.03,1.81-1.07,1.79-2.37,1.76-5.47-.11-5.47-.09-5.53,5.49-.04,4.6-.14,9.2-.08,13.8,.02,1.95-.85,2.32-2.59,2.35-1.86,.03-2.06-.87-2.02-2.34,.06-2.85,.02-5.71,.02-8.57h-.09Z"/><path class="b" d="M75.65,441.9c.97,0,1.53,.07,2.06-.01,1.89-.28,2.48,.52,2.46,2.38-.05,5.39,.05,10.78,.11,16.17,0,.86,.07,1.72,.13,2.98,3,0,5.89,0,8.79,0q3.82,0,3.2,4.08c-5.15,0-10.34,.03-15.54-.05-.41,0-1.16-.7-1.16-1.08-.07-8.06-.05-16.13-.05-24.47Z"/><path class="b" d="M379.34,467.3v-25.17c.64-.08,1.17-.14,1.69-.22,2.2-.3,3.03,.49,2.97,2.86-.16,6.26-.06,12.53-.05,18.8q0,4.31-4.61,3.73Z"/><path class="b" d="M186.09,467.45h-4.19c-.07-.67-.2-1.29-.2-1.9-.05-7.06-.04-14.11-.13-21.17-.02-1.79,.49-2.5,2.42-2.51,1.97,0,2.42,.78,2.41,2.55-.06,6.5-.01,13-.04,19.5,0,1.09-.16,2.18-.27,3.52Z"/><path class="b" d="M328.71,454.97c0,3.56-.04,7.13,.02,10.69,.03,1.64-.76,1.97-2.21,1.89-1.32-.08-2.55,.09-2.52-1.87,.09-7.29,.12-14.57,.11-21.86,0-1.76,1.02-1.81,2.33-1.83,1.47-.02,2.43,.23,2.39,2.05-.09,3.64-.03,7.29-.03,10.93h-.09Z"/></g></svg>